<svg id="Layer_1" data-name="Layer 1" xmlns="http://www.w3.org/2000/svg" viewBox="0 0 1600 1000"><defs><style>.cls-1{fill:#f9bfcb;}</style></defs><title>flack</title><rect class="cls-1" width="1600" height="1000"/><path d="M568.85,343.07a373.51,373.51,0,0,1,1.81-38.77c.53-5.73.86-11.49,1.48-17.21.82-7.5,1.77-15,2.79-22.47,1.08-7.83,2.31-15.64,3.47-23.46,1.83-12.27,4.15-24.45,6.83-36.56,2.59-11.75,5.54-23.43,8.35-35.14.29-1.22.64-2.43,1-3.63a7.92,7.92,0,0,1,.78-2c.81-1.25,1.87-2.23,3.52-2.06A3.65,3.65,0,0,1,602,165a7.62,7.62,0,0,1-.31,3.71c-2.69,5.41-3.41,11.35-4.69,17.11-3,13.5-5.88,27-8.47,40.63-1.88,9.88-3.32,19.85-4.78,29.8-1.43,9.78-2.69,19.59-3.94,29.39-.37,2.85-.47,5.74-.68,8.61a1.1,1.1,0,0,0,1.4,1.1,72.33,72.33,0,0,0,7.66-2.54,122.71,122.71,0,0,0,17.86-10,317.9,317.9,0,0,0,48-38.37,15.77,15.77,0,0,0,4.65-8.77,182.82,182.82,0,0,1,20-53.87A209.71,209.71,0,0,1,693,159.57a92.69,92.69,0,0,1,10.89-12.69,17.43,17.43,0,0,1,5.76-3.92,5.48,5.48,0,0,1,7.16,2.95,14.88,14.88,0,0,1,.66,8.5,103.23,103.23,0,0,1-7.08,24.26A187.05,187.05,0,0,1,686,219.89a233.21,233.21,0,0,1-18.62,21.71,10.26,10.26,0,0,0-3,6.1,105.62,105.62,0,0,0-.4,21.55,13.15,13.15,0,0,0,.77,3.13c1.22,3.67,2.76,4.63,6.53,3.49a35.94,35.94,0,0,0,7.39-3.23,239,239,0,0,0,27.16-18.57,470.44,470.44,0,0,0,37.51-31.71c2.21-2.11,4.5-4.13,6.77-6.19,5.21-4.74,9.44-10.37,14.17-15.55,6-6.6,13-11.87,21.74-14.46a22.9,22.9,0,0,1,5.28-.84c3.08-.16,5.54,1.25,7.65,3.4,1.5,1.53,2.72,3.28,4.59,4.52a4.22,4.22,0,0,1,1.52,4.86,52.68,52.68,0,0,1-2.38,6.58,121.67,121.67,0,0,0-6.37,17.18,26.4,26.4,0,0,0-.74,9.1c.27,3.43,1.92,5.29,5.32,5.78a20.48,20.48,0,0,0,5.36-.09A85.73,85.73,0,0,0,825,231.83a140.77,140.77,0,0,0,28.46-14.11,52,52,0,0,0,8.69-7.25,103.1,103.1,0,0,1,17.34-14.54c2.72-1.77,5.39-3.62,8.54-4.56a16.68,16.68,0,0,1,3.67-.78c4.42-.28,7.19,2,7.67,6.46a21.13,21.13,0,0,1-.07,5.39,54.37,54.37,0,0,1-4.66,16,20.65,20.65,0,0,1-3,4.45,5.05,5.05,0,0,1-2.77,1.41,3.06,3.06,0,0,1-3.34-4.16,19.25,19.25,0,0,1,1.41-2.26,37.7,37.7,0,0,0,5.1-18c.06-1.31-.93-1.89-2.18-1.29a56.69,56.69,0,0,0-15,10.47q-4.63,4.53-9.25,9.08a41.51,41.51,0,0,0-10.8,17.19,17.74,17.74,0,0,0-.78,4.75,4.15,4.15,0,0,0,3.78,4.48,26.69,26.69,0,0,0,3.22.25,55.87,55.87,0,0,0,15-1.56,390.79,390.79,0,0,0,67.4-20.84c4.82-2,9.41-4.49,14.08-6.82a19.46,19.46,0,0,0,6.16-5.11c5.76-6.91,11.76-13.62,17.69-20.39,7.24-8.27,15-16.05,22.86-23.71.91-.88,1.8-1.77,2.76-2.58a7.29,7.29,0,0,1,1.82-1.13,3.81,3.81,0,0,1,4.41,1,3.48,3.48,0,0,1-.75,4.83c-4.51,3.36-8.21,7.55-12,11.64-7.57,8.2-14.94,16.58-22.36,24.91-8.62,9.69-16.69,19.83-24.38,30.27-2.56,3.48-5,7.06-7.42,10.62-.82,1.2-.48,1.91,1.07,2.2a55.54,55.54,0,0,0,5.86.86,134.07,134.07,0,0,0,22.67-.11c5-.49,9.92-1.62,14.88-2.47,1.41-.24,2.82-.56,4.24-.71a5.92,5.92,0,0,1,2.12.27,3.88,3.88,0,0,1,2.58,3.16,3.48,3.48,0,0,1-2.31,3.31,4.93,4.93,0,0,1-1,.35c-5.66,1-11.35,1.8-17,2.84a86.23,86.23,0,0,1-16.67,1.12c-5.57-.07-11.17.16-16.66-1.11a4.61,4.61,0,0,0-1.61-.11,7,7,0,0,0-1.45.48,5.08,5.08,0,0,0,.58,1.48,42.87,42.87,0,0,0,4.25,4.86,89.37,89.37,0,0,0,8.37,6.8c20.12,14.06,41.91,24.42,66,29.67,1.58.35,3.16.68,4.73,1.06a11,11,0,0,1,2,.68,3.33,3.33,0,0,1,2,4,3.73,3.73,0,0,1-3.78,2.5c-4.43-.73-8.88-1.4-13.24-2.47-15.29-3.78-29.62-10-43.4-17.52A170.58,170.58,0,0,1,948,272.34a56.18,56.18,0,0,1-10.09-9.7c-.7-.9-1.52-.84-2.17.15-1.08,1.66-2.13,3.34-3.11,5-3.13,5.47-6.22,11-9.33,16.43a21.2,21.2,0,0,1-1.36,2.31,3.48,3.48,0,0,1-3.87,1.18,3.3,3.3,0,0,1-2.24-2.8,6.46,6.46,0,0,1,.39-3.14,48.46,48.46,0,0,1,2.7-5.27,469.55,469.55,0,0,1,28.12-44.78c.42-.59.84-1.18,1.21-1.79a4.49,4.49,0,0,0,.34-.91c-.49,0-1,0-1.47,0a1.61,1.61,0,0,0-.49.21,414,414,0,0,1-58.95,19.09c-5.94,1.43-11.93,2.69-18,3.58a66.65,66.65,0,0,1-11.31.28,14.06,14.06,0,0,1-4.69-1.13c-4.67-1.85-6.93-5.48-7.25-10.42a23.51,23.51,0,0,1,1.75-9.48,1.11,1.11,0,0,0-.19-1c-.14-.14-.63-.07-.9.05-4.08,1.88-8.12,3.86-12.23,5.68a103.21,103.21,0,0,1-21,6.86c-3,.62-6,1.17-9,1.59a16.72,16.72,0,0,1-6.94-.63A13.06,13.06,0,0,1,788,231.76c-.6-6.42.88-12.51,3-18.48.85-2.37,1.83-4.69,2.68-7.06.13-.36-.12-.86-.19-1.3a4.22,4.22,0,0,0-1,.36c-4.76,3.24-9.45,6.59-14.28,9.72-4.08,2.63-8.25,5.1-13.06,6.3-2.21.55-4.33.87-6.23-.44-1.65-1.13-2.56-.34-3.69.73a550.28,550.28,0,0,1-43.79,37.63c-8.31,6.33-16.77,12.44-25.65,17.94a55.74,55.74,0,0,1-11.59,5.71,18.73,18.73,0,0,1-6.91.87,9.21,9.21,0,0,1-7.64-4.4,21.93,21.93,0,0,1-3.39-11.23c-.21-4.5-.14-9-.21-13.5,0-.17-.11-.46-.2-.48a1.82,1.82,0,0,0-.9.05,3.78,3.78,0,0,0-.87.63c-4.88,4.25-9.69,8.61-14.66,12.75a284.06,284.06,0,0,1-39.24,27.63c-4,2.34-8.42,4.06-12.64,6.05-1,.48-1.17,1.31-.41,2.07,2.79,2.8,5.75,5.45,8.31,8.45,6.73,7.87,10.22,17.25,12.08,27.31a103,103,0,0,1,.94,28,124.67,124.67,0,0,1-8.48,36.1,35.81,35.81,0,0,1-5,8.93,19.07,19.07,0,0,1-4.27,4.05c-3.23,2.14-6.5,1.76-9.44-.79a14.38,14.38,0,0,1-4-5.73,81.2,81.2,0,0,1-3.1-9.18,152.34,152.34,0,0,1-3.52-20.71A310.88,310.88,0,0,1,568.85,343.07Zm7.64-.32-.44,0c.39,7.53.87,15.06,1.12,22.6a185.09,185.09,0,0,0,2.37,23,81.55,81.55,0,0,0,3.21,14.16,60.06,60.06,0,0,0,2.91,6.32,1.18,1.18,0,0,0,1.84.22,23.66,23.66,0,0,0,3-3.75,48.1,48.1,0,0,0,3.2-6.82,119.54,119.54,0,0,0,7.66-41.08A89.57,89.57,0,0,0,599,335c-3-11.86-9.79-21.05-19.45-28.29-.81-.61-1.77-.1-1.83,1-.41,7.53-.87,15.07-1.17,22.61C576.36,334.47,576.49,338.62,576.49,342.75ZM710,153.52l-.18-.93c-.44.13-1,.13-1.31.43-2,2.08-4,4.12-5.8,6.37a189,189,0,0,0-33,63.06c-.52,1.71-.88,3.47-1.29,5.21,0,.12.14.34.27.45a.47.47,0,0,0,.4,0,10.4,10.4,0,0,0,1.62-1.39c3.42-4.16,6.91-8.27,10.2-12.53a178.82,178.82,0,0,0,21.34-35.46A97.72,97.72,0,0,0,710,153.52Zm81.54,39.1c-3-.15-5.47.95-7.88,2.16-7.92,4-13.68,10.26-18.73,17.31a1,1,0,0,0-.2.5.63.63,0,0,0,.19.39c.12.1.33.25.44.21a17,17,0,0,0,2-.72,83.12,83.12,0,0,0,13.29-8.11q6.38-4.46,12.7-9a1.54,1.54,0,0,0,.58-1.26,2.2,2.2,0,0,0-1.07-1.08A5.05,5.05,0,0,0,791.55,192.62Z"/></svg>